<svg width="40" height="50" viewBox="0 0 40 50" fill="none" xmlns="http://www.w3.org/2000/svg">
<path d="M20 5C24.12 5 27.5 8.38 27.5 12.5V20H12.5V12.5C12.5 8.38 15.88 5 20 5ZM32.5 20V12.5C32.5 5.62 26.88 0 20 0C13.12 0 7.5 5.62 7.5 12.5V20H5C3.67392 20 2.40215 20.5268 1.46447 21.4645C0.526784 22.4021 0 23.6739 0 25V45C0 46.3261 0.526784 47.5979 1.46447 48.5355C2.40215 49.4732 3.67392 50 5 50H35C36.3261 50 37.5979 49.4732 38.5355 48.5355C39.4732 47.5979 40 46.3261 40 45V25C40 23.6739 39.4732 22.4021 38.5355 21.4645C37.5979 20.5268 36.3261 20 35 20H32.5ZM5 25H35V45H5V25Z" fill="black" fill-opacity="0.6"/>
</svg>
